<svg width="160" height="78" xmlns="http://www.w3.org/2000/svg">
 <!-- Created with Method Draw - http://github.com/duopixel/Method-Draw/ -->

 <g>
  <title>background</title>
  <rect fill="none" id="canvas_background" height="80" width="162" y="-1" x="-1"/>
  <g display="none" overflow="visible" y="0" x="0" height="100%" width="100%" id="canvasGrid">
   <rect fill="url(#gridpattern)" stroke-width="0" y="0" x="0" height="100%" width="100%"/>
  </g>
 </g>
 <g>
  <title>Layer 1</title>
  <!-- Generator: Sketch 3.8.2 (29753) - http://www.bohemiancoding.com/sketch -->
  <desc transform="matrix(0.35116598602839133,0,0,0.35116598602839133,0,0) ">Created with Sketch.</desc>

  <g id="svg_18">
   <g transform="matrix(0.35116598602839133,0,0,0.35116598602839133,0,0) " fill-rule="evenodd" fill="none" id="svg_10">
    <g id="svg_11">
     <polygon points="0,0 222.74896240234375,0 222.74896240234375,114.6700439453125 138.78399658203125,114.6700439453125 138.78399658203125,223.26904296875 0,223.26904296875 " fill="#1A1918" id="svg_16"/>
     <g fill="#FFFFFF" id="svg_12">
      <path id="svg_15" d="m47.569609,112.638215c-20.093,0 -34.279,14.047 -34.279,33.768c0,19.721 14.186,33.767 34.279,33.767c12.465,0 22.372,-5.534 28.326,-14.418l-12.744,-9.024c-3.721,5.535 -9.117,8.559 -15.722,8.559c-9.628,0 -17.953,-6.791 -17.953,-18.884c0,-11.163 7.628,-18.884 17.907,-18.884c6.744,0 12.093,3.07 15.488,8.605l13.628,-7.814c-5.534,-9.861 -16.511,-15.675 -28.93,-15.675m58.079,0.485c-13.671,0 -23.768,9.828 -23.768,23.097c0,13.269 10.097,23.098 23.768,23.098c13.715,0 23.812,-9.829 23.812,-23.098c0,-13.269 -10.097,-23.097 -23.812,-23.097m0,13.045c5.495,0 9.516,4.155 9.516,10.052c0,5.897 -4.021,10.052 -9.516,10.052c-5.451,0 -9.471,-4.155 -9.471,-10.052c0,-5.897 4.02,-10.052 9.471,-10.052"/>
      <path id="svg_14" d="m99.520609,43.952215c-13.861,0 -23.396,9.954 -23.396,24.326c0,14.232 9.721,23.767 24.047,23.767c8.419,0 15.349,-2.744 20.093,-7.488l-9.395,-8.744c-2.884,2.604 -6.558,4 -9.954,4c-5.023,0 -8.558,-2.326 -9.767,-7.303l30.93,0c0.186,-0.976 0.279,-3.023 0.279,-4.511c-0.046,-14.279 -9.302,-24.047 -22.837,-24.047l0,0zm0.047,12.372c4.232,0 7.069,2.419 8.232,6.977l-16.605,0c1.117,-4.512 3.861,-6.977 8.373,-6.977l0,0zm72.511,-11.116l-14.558,0l-9.209,28.977l-8.791,-28.977l-15.488,0l15.767,45.628l16.14,0l8.79,-27.302l8.884,27.302l16.233,0l15.721,-45.628l-15.302,0l-8.884,29.116l-9.303,-29.116z"/>
      <path id="svg_13" d="m66.059609,55.914115c-0.007,-9.341 -0.076,-18.423 -0.226,-26.227c0,-0.914 0,-1.097 -0.859,-1.097l-13.053,0c-0.687,0 -0.687,0.091 -0.687,1.097l0,0.006l0,27.431c0,0 -21.039,-20.761 -33.319,-30.089c-0.258,-0.183 -0.516,-0.274 -0.687,-0.091c-0.172,0.091 -0.258,0.274 -0.258,0.731c-0.172,12.074 -0.279,21.747 -0.29,31.317c-0.011,9.569 0.075,19.034 0.29,30.695c0,0.366 0.258,0.914 0.859,0.914l12.967,0c0.773,0 0.773,0 0.773,-0.823l0,-0.005l0,-27.98c0,0 20.266,19.846 33.234,30.18c0.343,0.274 0.601,0.366 0.772,0.274c0.258,-0.091 0.258,-0.548 0.258,-1.189c0.145,-10.7 0.236,-23.136 0.226,-35.144"/>
     </g>
    </g>
   </g>
  </g>
  <text font-weight="bold" xml:space="preserve" text-anchor="start" font-family="'Trebuchet MS', Gadget, sans-serif" font-size="26" id="svg_19" y="70.202225" x="53.5" stroke-width="0" stroke="#000" fill="#ffffff">Shanghai</text>
 </g>
</svg>