<?xml version="1.0" encoding="UTF-8" standalone="no"?>
<svg width="224px" height="225px" viewBox="0 0 224 225" version="1.1" xmlns="http://www.w3.org/2000/svg" xmlns:xlink="http://www.w3.org/1999/xlink">
    <!-- Generator: Sketch 3.8.2 (29753) - http://www.bohemiancoding.com/sketch -->
    <title>NewCo_Square_Centered</title>
    <desc>Created with Sketch.</desc>
    <defs></defs>
    <g id="Page-1" stroke="none" stroke-width="1" fill="none" fill-rule="evenodd">
        <g id="NewCo_Square_Centered">
            <polygon id="Fill-1" fill="#1A1918" points="0.8662 0.8662 223.6152 0.8662 223.6152 115.5362 139.6502 115.5362 139.6502 224.1352 0.8662 224.1352"></polygon>
            <g id="Group-8" transform="translate(14.000000, 27.000000)" fill="#FFFFFF">
                <path d="M34.4358,86.5044 C14.3428,86.5044 0.1568,100.5514 0.1568,120.2724 C0.1568,139.9934 14.3428,154.0394 34.4358,154.0394 C46.9008,154.0394 56.8078,148.5054 62.7618,139.6214 L50.0178,130.5974 C46.2968,136.1324 40.9008,139.1564 34.2958,139.1564 C24.6678,139.1564 16.3428,132.3654 16.3428,120.2724 C16.3428,109.1094 23.9708,101.3884 34.2498,101.3884 C40.9938,101.3884 46.3428,104.4584 49.7378,109.9934 L63.3658,102.1794 C57.8318,92.3184 46.8548,86.5044 34.4358,86.5044 M92.5148,86.9894 C78.8438,86.9894 68.7468,96.8174 68.7468,110.0864 C68.7468,123.3554 78.8438,133.1844 92.5148,133.1844 C106.2298,133.1844 116.3268,123.3554 116.3268,110.0864 C116.3268,96.8174 106.2298,86.9894 92.5148,86.9894 M92.5148,100.0344 C98.0098,100.0344 102.0308,104.1894 102.0308,110.0864 C102.0308,115.9834 98.0098,120.1384 92.5148,120.1384 C87.0638,120.1384 83.0438,115.9834 83.0438,110.0864 C83.0438,104.1894 87.0638,100.0344 92.5148,100.0344" id="Fill-2"></path>
                <path d="M86.3868,17.8184 C72.5258,17.8184 62.9908,27.7724 62.9908,42.1444 C62.9908,56.3764 72.7118,65.9114 87.0378,65.9114 C95.4568,65.9114 102.3868,63.1674 107.1308,58.4234 L97.7358,49.6794 C94.8518,52.2834 91.1778,53.6794 87.7818,53.6794 C82.7588,53.6794 79.2238,51.3534 78.0148,46.3764 L108.9448,46.3764 C109.1308,45.4004 109.2238,43.3534 109.2238,41.8654 C109.1778,27.5864 99.9218,17.8184 86.3868,17.8184 L86.3868,17.8184 Z M86.4338,30.1904 C90.6658,30.1904 93.5028,32.6094 94.6658,37.1674 L78.0608,37.1674 C79.1778,32.6554 81.9218,30.1904 86.4338,30.1904 L86.4338,30.1904 Z M158.9448,19.0744 L144.3868,19.0744 L135.1778,48.0514 L126.3868,19.0744 L110.8988,19.0744 L126.6658,64.7024 L142.8058,64.7024 L151.5958,37.4004 L160.4798,64.7024 L176.7128,64.7024 L192.4338,19.0744 L177.1318,19.0744 L168.2478,48.1904 L158.9448,19.0744 Z" id="Fill-4"></path>
                <path d="M52.9258,29.7803 C52.9188,20.4393 52.8498,11.3573 52.6998,3.5533 C52.6998,2.6393 52.6998,2.4563 51.8408,2.4563 L38.7878,2.4563 C38.1008,2.4563 38.1008,2.5473 38.1008,3.5533 L38.1008,3.5593 L38.1008,30.9903 C38.1008,30.9903 17.0618,10.2293 4.7818,0.9013 C4.5238,0.7183 4.2658,0.6273 4.0948,0.8103 C3.9228,0.9013 3.8368,1.0843 3.8368,1.5413 C3.6648,13.6153 3.5578,23.2883 3.5468,32.8583 C3.5358,42.4273 3.6218,51.8923 3.8368,63.5533 C3.8368,63.9193 4.0948,64.4673 4.6958,64.4673 L17.6628,64.4673 C18.4358,64.4673 18.4358,64.4673 18.4358,63.6443 L18.4358,63.6393 L18.4358,35.6593 C18.4358,35.6593 38.7018,55.5053 51.6698,65.8393 C52.0128,66.1133 52.2708,66.2053 52.4418,66.1133 C52.6998,66.0223 52.6998,65.5653 52.6998,64.9243 C52.8448,54.2243 52.9358,41.7883 52.9258,29.7803" id="Fill-6"></path>
            </g>
        </g>
    </g>
</svg>